<svg width="21" height="20" viewBox="0 0 21 20" fill="none" xmlns="http://www.w3.org/2000/svg">
<path d="M16.7917 13.6667C18.5636 13.6667 20 10.999 20 7.70833C20 4.41764 18.5636 1.75 16.7917 1.75M16.7917 13.6667C15.0197 13.6667 13.5833 10.999 13.5833 7.70833C13.5833 4.41764 15.0197 1.75 16.7917 1.75M16.7917 13.6667L4.82325 11.4906C3.97304 11.336 3.54794 11.2587 3.20421 11.0899C2.50493 10.7464 1.98416 10.1224 1.7713 9.37294C1.66666 9.00454 1.66666 8.57247 1.66666 7.70833C1.66666 6.84419 1.66666 6.41212 1.7713 6.04373C1.98416 5.29428 2.50493 4.67029 3.20421 4.32679C3.54794 4.15795 3.97304 4.08066 4.82325 3.92608L16.7917 1.75M4.41666 11.8333L4.7777 16.8878C4.81199 17.3678 4.82913 17.6078 4.93355 17.7897C5.02549 17.9499 5.16365 18.0785 5.32993 18.1588C5.51879 18.25 5.75941 18.25 6.24064 18.25H7.87451C8.42464 18.25 8.69971 18.25 8.9033 18.1403C9.08219 18.0439 9.22398 17.8908 9.30637 17.705C9.40015 17.4936 9.37905 17.2194 9.33686 16.6708L9 12.2917" stroke="url(#paint0_linear_134_3593)" stroke-width="2" stroke-linecap="round" stroke-linejoin="round"/>
<defs>
<linearGradient id="paint0_linear_134_3593" x1="1.79223" y1="1.75" x2="19.8744" y2="18.25" gradientUnits="userSpaceOnUse">
<stop stop-color="#0051CB"/>
<stop offset="1" stop-color="#013394"/>
</linearGradient>
</defs>
</svg>
