<svg width="11" height="12" viewBox="0 0 11 12" fill="none" xmlns="http://www.w3.org/2000/svg">
<path fill-rule="evenodd" clip-rule="evenodd" d="M5.49769 2.00001C5.37391 1.99942 5.24992 2.05009 5.16087 2.15201L2.05419 5.70757C1.89269 5.89241 1.9116 6.17318 2.09645 6.33468C2.28129 6.49619 2.56206 6.47727 2.72356 6.29243L5.05554 3.62351V9.55556C5.05554 9.80102 5.25453 10 5.49999 10C5.74545 10 5.94443 9.80102 5.94443 9.55556V3.6311L8.27683 6.2929C8.43859 6.47752 8.71939 6.49604 8.904 6.33427C9.08862 6.1725 9.10714 5.89171 8.94537 5.7071L5.86779 2.19487C5.78783 2.07725 5.65293 2 5.49999 2C5.49922 2 5.49846 2 5.49769 2.00001Z" fill="#3DD598"/>
</svg>
