<svg width="22" height="22" viewBox="0 0 22 22" fill="none" xmlns="http://www.w3.org/2000/svg">
<path d="M19.5577 14.8428L20.3087 14.5085C20.1639 14.1831 19.826 13.9881 19.4718 14.0253L19.5577 14.8428ZM13.3605 20.4229L12.5564 20.252C12.4823 20.6003 12.641 20.9567 12.9495 21.1348L13.3605 20.4229ZM2.04214 6.55018L1.30621 6.18391L2.04214 6.55018ZM1.87069 15.0872L1.1206 15.4235H1.1206L1.87069 15.0872ZM19.8887 15.5862L20.6189 15.9637L19.8887 15.5862ZM9.017 5.07651L13.1866 8.10592L14.153 6.77583L9.98337 3.74642L9.017 5.07651ZM12.888 7.18685L11.2954 12.0885L12.859 12.5966L14.4516 7.6949L12.888 7.18685ZM12.0772 11.5205H6.92321V13.1646H12.0772V11.5205ZM7.70502 12.0885L6.11236 7.18685L4.54875 7.6949L6.1414 12.5966L7.70502 12.0885ZM5.81373 8.10592L9.98337 5.07651L9.017 3.74642L4.84737 6.77583L5.81373 8.10592ZM19.4718 14.0253L14.3461 14.564L14.518 16.1991L19.6437 15.6604L19.4718 14.0253ZM13.628 15.2107L12.5564 20.252L14.1645 20.5938L15.2361 15.5525L13.628 15.2107ZM10.3222 4.41146V1.1233H8.67814V4.41146H10.3222ZM13.8848 8.23432L17.3871 7.28558L16.9572 5.69869L13.4549 6.64743L13.8848 8.23432ZM11.4274 12.8461L13.7822 15.8851L15.0818 14.8781L12.7269 11.8391L11.4274 12.8461ZM6.26274 11.8532L4.01082 14.8921L5.33176 15.871L7.58368 12.832L6.26274 11.8532ZM17.3282 3.79173L16.4047 6.19754L17.9396 6.78673L18.8631 4.38092L17.3282 3.79173ZM16.776 7.21243L20.2655 9.13153L21.0578 7.69094L17.5683 5.77184L16.776 7.21243ZM11 1.82204C15.246 1.82204 18.8205 4.70609 19.8675 8.62348L21.4558 8.19898C20.2215 3.58046 16.0091 0.177961 11 0.177961V1.82204ZM19.8675 8.62348C20.0698 9.38057 20.178 10.177 20.178 11H21.822C21.822 10.0324 21.6949 9.09329 21.4558 8.19898L19.8675 8.62348ZM5.54546 6.64743L2.25705 5.75673L1.82723 7.34363L5.11564 8.23433L5.54546 6.64743ZM1.82204 11C1.82204 9.53131 2.16641 8.1454 2.77807 6.91646L1.30621 6.18391C0.583828 7.63532 0.177961 9.27144 0.177961 11H1.82204ZM2.77807 6.91646C4.28182 3.8951 7.39957 1.82204 11 1.82204V0.177961C6.75199 0.177961 3.07718 2.62567 1.30621 6.18391L2.77807 6.91646ZM1.78476 15.9047L4.58536 16.1991L4.75721 14.564L1.95662 14.2697L1.78476 15.9047ZM2.62078 14.7509C2.10778 13.6068 1.82204 12.3379 1.82204 11H0.177961C0.177961 12.5742 0.5146 14.072 1.1206 15.4235L2.62078 14.7509ZM11 20.178C9.14108 20.178 7.41353 19.6262 5.96918 18.6777L5.06671 20.0519C6.77091 21.1711 8.81069 21.822 11 21.822V20.178ZM5.96918 18.6777C4.51029 17.7196 3.34097 16.3571 2.62078 14.7509L1.1206 15.4235C1.97025 17.3184 3.34819 18.9234 5.06671 20.0519L5.96918 18.6777ZM3.86721 15.5525L4.71387 19.5357L6.32202 19.1939L5.47536 15.2107L3.86721 15.5525ZM20.6397 15.2518L20.3087 14.5085L18.8068 15.1772L19.1377 15.9205L20.6397 15.2518ZM20.178 11C20.178 12.5186 19.8098 13.9489 19.1585 15.2086L20.6189 15.9637C21.388 14.476 21.822 12.7875 21.822 11H20.178ZM19.1585 15.2086C18.0031 17.4435 15.9564 19.1424 13.4917 19.8359L13.937 21.4185C16.8469 20.5998 19.2576 18.5968 20.6189 15.9637L19.1585 15.2086ZM13.4917 19.8359C12.7003 20.0586 11.8648 20.178 11 20.178V21.822C12.0168 21.822 13.0021 21.6816 13.937 21.4185L13.4917 19.8359ZM12.9495 21.1348L13.3034 21.3391L14.1254 19.9153L13.7715 19.711L12.9495 21.1348Z" fill="black"/>
</svg>
