<svg width="20" height="18" viewBox="0 0 20 18" fill="none" xmlns="http://www.w3.org/2000/svg">
<path d="M8.74996 3.28487C9.1591 3.20677 9.57746 3.16667 9.99996 3.16667C11.7681 3.16667 13.4638 3.86905 14.714 5.11929C15.9642 6.36953 16.6666 8.06522 16.6666 9.83333C16.6666 10.2558 16.6265 10.6742 16.5484 11.0833M15.1129 14.1115C14.987 14.262 14.8539 14.4075 14.714 14.5474C13.4638 15.7976 11.7681 16.5 9.99996 16.5C8.23185 16.5 6.53616 15.7976 5.28591 14.5474C4.03567 13.2971 3.33329 11.6014 3.33329 9.83333C3.33329 8.06522 4.03567 6.36953 5.28591 5.11929C5.42452 4.98068 5.56861 4.84881 5.71766 4.72388M3.33329 2.33333L1.66663 4M18.3333 4L15.8333 1.5M4.99996 14.8333L3.33329 16.5M17.5 16.5L2.49996 1.5" stroke="black" stroke-width="2" stroke-linecap="round" stroke-linejoin="round"/>
</svg>
