<svg width="23" height="20" viewBox="0 0 23 20" fill="none" xmlns="http://www.w3.org/2000/svg">
<path d="M12.5 3C12.5 4.10457 10.0376 5 7 5C3.96243 5 1.5 4.10457 1.5 3M12.5 3C12.5 1.89543 10.0376 1 7 1C3.96243 1 1.5 1.89543 1.5 3M12.5 3V7.45715C11.2785 7.82398 10.5 8.37893 10.5 9M1.5 3V15C1.5 16.1046 3.96243 17 7 17C8.32963 17 9.54906 16.8284 10.5 16.5429V9M1.5 7C1.5 8.10457 3.96243 9 7 9C8.32963 9 9.54906 8.82843 10.5 8.54285M1.5 11C1.5 12.1046 3.96243 13 7 13C8.32963 13 9.54906 12.8284 10.5 12.5429M21.5 9C21.5 10.1046 19.0376 11 16 11C12.9624 11 10.5 10.1046 10.5 9M21.5 9C21.5 7.89543 19.0376 7 16 7C12.9624 7 10.5 7.89543 10.5 9M21.5 9V17C21.5 18.1046 19.0376 19 16 19C12.9624 19 10.5 18.1046 10.5 17V9M21.5 13C21.5 14.1046 19.0376 15 16 15C12.9624 15 10.5 14.1046 10.5 13" stroke="#A4A4A4" stroke-width="2" stroke-linecap="round" stroke-linejoin="round"/>
</svg>
