<svg width="21" height="21" viewBox="0 0 21 21" fill="none" xmlns="http://www.w3.org/2000/svg">
<path d="M1.5 5.8C1.5 4.11984 1.5 3.27976 1.82698 2.63803C2.1146 2.07354 2.57354 1.6146 3.13803 1.32698C3.77976 1 4.61984 1 6.3 1H14.7C16.3802 1 17.2202 1 17.862 1.32698C18.4265 1.6146 18.8854 2.07354 19.173 2.63803C19.5 3.27976 19.5 4.11984 19.5 5.8V11.2C19.5 12.8802 19.5 13.7202 19.173 14.362C18.8854 14.9265 18.4265 15.3854 17.862 15.673C17.2202 16 16.3802 16 14.7 16H12.1837C11.5597 16 11.2477 16 10.9492 16.0613C10.6844 16.1156 10.4282 16.2055 10.1875 16.3285C9.91617 16.4671 9.67252 16.662 9.18521 17.0518L6.79976 18.9602C6.38367 19.2931 6.17563 19.4595 6.00054 19.4597C5.84827 19.4599 5.70422 19.3906 5.60923 19.2716C5.5 19.1348 5.5 18.8684 5.5 18.3355V16C4.57003 16 4.10504 16 3.72354 15.8978C2.68827 15.6204 1.87962 14.8117 1.60222 13.7765C1.5 13.395 1.5 12.93 1.5 12V5.8Z" stroke="#A4A4A4" stroke-width="2" stroke-linecap="round" stroke-linejoin="round"/>
<path fill-rule="evenodd" clip-rule="evenodd" d="M10.4969 5.69925C9.59721 4.6604 8.09689 4.38095 6.96961 5.33223C5.84234 6.2835 5.68364 7.87399 6.56889 8.99907C7.11733 9.69609 8.49389 10.9691 9.46196 11.837C9.81755 12.1557 9.99535 12.3151 10.2087 12.3793C10.3918 12.4344 10.6021 12.4344 10.7851 12.3793C10.9985 12.3151 11.1763 12.1557 11.5319 11.837C12.4999 10.9691 13.8765 9.69609 14.4249 8.99907C15.3102 7.87399 15.1709 6.2735 14.0242 5.33223C12.8776 4.39096 11.3966 4.6604 10.4969 5.69925Z" stroke="#A4A4A4" stroke-width="2" stroke-linecap="round" stroke-linejoin="round"/>
</svg>
