<svg width="19" height="18" viewBox="0 0 19 18" fill="none" xmlns="http://www.w3.org/2000/svg">
<path d="M17.1667 1L1.16669 17M5.73812 3.28571C5.73812 4.54808 4.71477 5.57143 3.4524 5.57143C2.19004 5.57143 1.16669 4.54808 1.16669 3.28571C1.16669 2.02335 2.19004 1 3.4524 1C4.71477 1 5.73812 2.02335 5.73812 3.28571ZM17.1667 14.7143C17.1667 15.9767 16.1433 17 14.881 17C13.6186 17 12.5953 15.9767 12.5953 14.7143C12.5953 13.4519 13.6186 12.4286 14.881 12.4286C16.1433 12.4286 17.1667 13.4519 17.1667 14.7143Z" stroke="url(#paint0_linear_114_10027)" stroke-width="2" stroke-linecap="round" stroke-linejoin="round"/>
<defs>
<linearGradient id="paint0_linear_114_10027" x1="9.16669" y1="1" x2="9.16669" y2="17" gradientUnits="userSpaceOnUse">
<stop stop-color="#0051CB"/>
<stop offset="1" stop-color="#013394"/>
</linearGradient>
</defs>
</svg>
