<svg width="19" height="4" viewBox="0 0 19 4" fill="none" xmlns="http://www.w3.org/2000/svg">
<path d="M9.5 3C10.0523 3 10.5 2.55228 10.5 2C10.5 1.44772 10.0523 1 9.5 1C8.94772 1 8.5 1.44772 8.5 2C8.5 2.55228 8.94772 3 9.5 3Z" stroke="#A4A4A4" stroke-width="2" stroke-linecap="round" stroke-linejoin="round"/>
<path d="M16.5 3C17.0523 3 17.5 2.55228 17.5 2C17.5 1.44772 17.0523 1 16.5 1C15.9477 1 15.5 1.44772 15.5 2C15.5 2.55228 15.9477 3 16.5 3Z" stroke="#A4A4A4" stroke-width="2" stroke-linecap="round" stroke-linejoin="round"/>
<path d="M2.5 3C3.05228 3 3.5 2.55228 3.5 2C3.5 1.44772 3.05228 1 2.5 1C1.94772 1 1.5 1.44772 1.5 2C1.5 2.55228 1.94772 3 2.5 3Z" stroke="#A4A4A4" stroke-width="2" stroke-linecap="round" stroke-linejoin="round"/>
</svg>
